<?xml version="1.0" ?><svg xmlns="http://www.w3.org/2000/svg" xmlns:xlink="http://www.w3.org/1999/xlink" version="1.1" viewBox="0 0 512 512" style="enable-background:new 0 0 512 512;" xml:space="preserve"><style type="text/css">
	.st0{fill:#231A15;}
	.st1{fill:#FFE000;}
	.st2{fill:#BCA100;}
	.st3{fill:#FC0000;}
	.st4{fill:#AA0000;}
	.st5{fill:#F94343;}
	.st6{fill:#FFFFFF;}
	.st7{fill:#A58E07;}
	.st8{opacity:0.44;}
	.st9{fill:#756204;}
	.st10{opacity:0.64;}
	.st11{opacity:0.38;}
	.st12{fill:#5D5004;}
	.st13{fill:#B7A100;}
	.st14{fill:#1D4DFC;}
	.st15{fill:#143CAF;}
	.st16{opacity:0.59;}
	.st17{opacity:0.52;}
	.st18{fill:#FF7F1F;}
	.st19{fill:#C4570C;}
	.st20{fill:#B29904;}
	.st21{fill:#87720A;}
	.st22{fill:#DDDDDD;}
	.st23{opacity:0.51;}
	.st24{fill:#878787;}
	.st25{fill:#727272;}
	.st26{opacity:0.33;}
	.st27{opacity:0.46;}
	.st28{fill:#25CBF2;}
	.st29{fill:#0A8FA5;}
	.st30{opacity:0.58;}
	.st31{fill:#04889E;}
	.st32{fill:#035A63;}
	.st33{opacity:0.65;}
	.st34{opacity:0.39;}
	.st35{fill:#AB0000;}
	.st36{fill:#1987A1;}
	.st37{fill:#3F1F0A;}
	.st38{fill:#4DEEFF;}
	.st39{fill:#21B9C1;}
	.st40{fill:#BBF9FF;}
	.st41{fill:#64ACAF;}
	.st42{fill:#089FB7;}
	.st43{opacity:0.47;}
	.st44{opacity:0.42;}
	.st45{fill:#DBF7FC;}
	.st46{fill:#B2E7ED;}
	.st47{fill:#0FA2BA;}
	.st48{opacity:0.54;}
	.st49{fill:#8E7716;}
	.st50{fill:#191401;}
	.st51{fill:#382E02;}
	.st52{fill:#605106;}
	.st53{fill:#AFACA0;}
	.st54{fill:#BC0404;}
	.st55{fill:#750000;}
	.st56{fill:#A08B0D;}
	.st57{fill:#5B4C05;}
	.st58{opacity:0.4;}
	.st59{opacity:0.5;}
	.st60{fill:#FF8383;}
	.st61{fill:#FFF0A6;}
	.st62{fill:#E2C227;}
	.st63{fill:#AA9205;}
	.st64{fill:#FFEA71;}
	.st65{opacity:0.22;}
	.st66{fill:#B19B00;}
	.st67{fill:#1989A4;}
	.st68{fill:#13A0B7;}
	.st69{fill:#C4A805;}
	.st70{fill:#FFF3A9;}
	.st71{fill:#846E03;}
	.st72{fill:#2D2502;}
	.st73{opacity:0.36;}
	.st74{fill:#4DD307;}
	.st75{fill:#328402;}
	.st76{fill:#97FF5A;}
	.st77{fill:#7A6500;}
	.st78{fill:#246001;}
	.st79{fill:#359100;}
	.st80{fill:#968022;}
	.st81{fill:#4F420B;}
	.st82{fill:#FFED83;}
	.st83{fill:#BAA335;}
	.st84{fill:#8D0991;}
	.st85{fill:#4B044F;}
	.st86{fill:#CE15CE;}
	.st87{fill:#897502;}
	.st88{fill:#493D01;}
	.st89{fill:#C9C9C9;}
	.st90{fill:#2D280E;}
	.st91{fill:#378C06;}
	.st92{fill:#183A03;}
	.st93{fill:#94FF55;}
	.st94{fill:#2E7F04;}
	.st95{fill:#63AB39;}
	.st96{fill:#AA5F04;}
	.st97{fill:#633502;}
	.st98{fill:#EF9014;}
	.st99{fill:#A05A07;}
	.st100{fill:#05616B;}
	.st101{fill:#033335;}
	.st102{fill:#0E94AA;}
	.st103{fill:#035D66;}
	.st104{opacity:0.27;}
	.st105{opacity:0.43;}
	.st106{fill:#FFF203;}
	.st107{fill:#FFA300;}
	.st108{fill:#2B3030;}
	.st109{opacity:0.28;}
	.st110{fill:#FCD17A;}
	.st111{fill:#AF853A;}
	.st112{opacity:0.31;}
	.st113{fill:#B641FF;}
	.st114{fill:#700FBC;}
	.st115{fill:#F2D0B1;}
	.st116{fill:#AF835F;}
	.st117{fill:#C17540;}
	.st118{fill:#F2BA94;}
	.st119{fill:#592909;}
	.st120{fill:#2B1204;}
	.st121{fill:#894818;}
	.st122{fill:#512609;}
	.st123{fill:#FF7F15;}
	.st124{fill:#A04A0A;}
	.st125{fill:#B7865E;}
	.st126{fill:#70350E;}
	.st127{fill:#3A1805;}
	.st128{fill:#C1521B;}
	.st129{fill:#FFC7AE;}
	.st130{fill:#FF717F;}
	.st131{fill:#6E2F0F;}
	.st132{fill:#AC8675;}
	.st133{opacity:0.25;}
	.st134{opacity:0.32;}
	.st135{fill:#FFFCC5;}
	.st136{fill:#D1CA78;}
	.st137{fill:#D37733;}
	.st138{fill:#A04F18;}
	.st139{fill:#0ABFBA;}
	.st140{fill:#057F79;}
	.st141{fill:#15F9F9;}
	.st142{fill:#09B2AD;}
	.st143{fill:#B2B2B2;}
	.st144{fill:#FFF755;}
	.st145{fill:#BCB121;}
	.st146{fill:#F90368;}
	.st147{opacity:0.49;}
	.st148{fill:#B50857;}
	.st149{fill:#FF76B4;}
	.st150{fill:#F23091;}
	.st151{fill:#FFF800;}
	.st152{fill:#C9BF05;}
	.st153{fill:#FF8500;}
	.st154{fill:#A35507;}
	.st155{fill:#AA6E50;}
	.st156{fill:#723C25;}
	.st157{fill:#EAD4B9;}
	.st158{fill:#AA8D6F;}
	.st159{fill:#B7A8A5;}
	.st160{fill:#84726F;}
	.st161{fill:#77645F;}
	.st162{fill:#51403C;}
	.st163{fill:#EABBA7;}
	.st164{fill:#BC7F69;}
	.st165{fill:#7C5039;}
	.st166{fill:#442619;}
	.st167{fill:#B7AE04;}
	.st168{fill:#BAB108;}
	.st169{fill:#7A7105;}
	.st170{fill:#352B23;}
	.st171{fill:#050403;}
	.st172{fill:#706255;}
	.st173{fill:#44382E;}
	.st174{fill:#634319;}
	.st175{fill:#35210A;}
	.st176{fill:#2D1C08;}
	.st177{fill:#0A0601;}
	.st178{fill:#9E7443;}
	.st179{fill:#704D2A;}
	.st180{fill:#D8A73A;}
	.st181{fill:#A0741C;}
	.st182{fill:#3F2F28;}
	.st183{fill:#211410;}
	.st184{fill:#FF326C;}
	.st185{fill:#BC0749;}
	.st186{fill:#68390E;}
	.st187{fill:#A5632D;}
	.st188{fill:#3D1E05;}
	.st189{fill:#331A06;}
	.st190{fill:#110801;}
	.st191{fill:#160A02;}
	.st192{fill:#663514;}
	.st193{opacity:0.29;}
	.st194{fill:#FC001F;}
	.st195{fill:#AF021F;}
	.st196{fill:#C48622;}
	.st197{fill:#8C5910;}
	.st198{fill:#846D64;}
	.st199{fill:#513B35;}
	.st200{fill:#5B4842;}
	.st201{fill:#332522;}
	.st202{fill:#47332C;}
	.st203{fill:#543E38;}
	.st204{fill:#1E1412;}
	.st205{fill:#604C43;}
	.st206{fill:#D3896C;}
	.st207{fill:#FF001F;}
	.st208{fill:#AF0824;}
	.st209{fill:#A37462;}
	.st210{fill:#5E3E34;}
	.st211{fill:#874A38;}
	.st212{fill:#4C2218;}
	.st213{fill:#5B2B20;}
	.st214{fill:#210C09;}
	.st215{fill:#99001A;}
	.st216{fill:#A08A07;}
	.st217{fill:#A08904;}
	.st218{fill:#5B4C02;}
	.st219{fill:#CECAB7;}
	.st220{fill:#727068;}
	.st221{fill:#42403A;}
	.st222{fill:#B2B0A6;}
	.st223{fill:#726F62;}
	.st224{fill:#6B4F45;}
	.st225{fill:#3A261F;}
	.st226{fill:#777468;}
	.st227{fill:#474436;}
	.st228{fill:#B78B7D;}
	.st229{fill:#845A4E;}
	.st230{fill:#3A372D;}
	.st231{fill:#43CFFF;}
	.st232{fill:#13A0BC;}
</style><g id="_x33_8"><g><path class="st0" d="M374.3,491.82c-0.08,0-0.15,0-0.23,0l-1.06-0.02c-0.57-0.01-1.13-0.02-1.69-0.04    c-0.37-0.01-0.73-0.03-1.09-0.05c-0.53-0.03-1.07-0.06-1.6-0.09c-0.35-0.02-0.7-0.05-1.06-0.08c-0.54-0.04-1.06-0.09-1.58-0.15    c-0.33-0.03-0.67-0.07-1.01-0.11c-0.55-0.06-1.08-0.13-1.61-0.21l-0.22-0.03c-0.23-0.03-0.46-0.06-0.69-0.1    c-0.6-0.09-1.19-0.19-1.77-0.3l-0.13-0.02c-0.18-0.03-0.37-0.06-0.55-0.1c-0.84-0.16-1.65-0.33-2.44-0.51    c-27.94-6.47-42.83-29.99-41.75-65.17c-0.69-0.11-1.38-0.24-2.06-0.38c-1.02-0.21-2.08-0.47-3.23-0.79    c-7.36-2.03-13.1-5.41-17.39-8.81c-1.03,1.39-2.2,2.77-3.53,4.1c-0.72,0.72-1.51,1.43-2.41,2.17c-1.46,1.21-2.92,2.23-4.47,3.14    c-0.65,0.38-1.34,0.75-2.05,1.11c-0.86,0.43-1.76,0.82-2.84,1.24c-1.96,0.76-4.04,1.36-6.17,1.78c-2.86,0.56-5.86,0.83-8.9,0.76    c-0.85-0.01-1.71-0.05-2.57-0.11h-8.37c-0.86,0.06-1.72,0.1-2.57,0.11c-3.17,0.06-6.29-0.23-9.26-0.84    c-1.93-0.4-3.8-0.94-5.57-1.62c-3.78-1.44-7.21-3.49-10.22-6.09c-0.12-0.1-0.25-0.21-0.37-0.32c-1.93-1.72-3.57-3.57-4.95-5.43    c-1.7,1.35-3.49,2.58-5.36,3.7c-0.69,0.41-1.44,0.83-2.21,1.24c-3.05,1.6-6.29,2.89-9.66,3.83c-1.28,0.36-2.59,0.67-3.89,0.93    c-0.52,0.1-1.05,0.2-1.58,0.29l0.05,3.02l0,0.77c0,0.35,0,0.71-0.01,1.07l-0.01,0.73c-0.01,0.38-0.02,0.75-0.03,1.11l-0.02,0.69    c-0.01,0.39-0.03,0.77-0.05,1.15l-0.03,0.63c-0.02,0.42-0.05,0.82-0.07,1.22l-0.04,0.53c-0.03,0.45-0.06,0.87-0.1,1.3l-0.04,0.46    c-0.04,0.45-0.08,0.91-0.13,1.37l-0.02,0.22c-0.54,4.92-1.44,9.56-2.7,13.83c-0.01,0.03-0.02,0.05-0.02,0.08    c-0.16,0.53-0.32,1.06-0.49,1.59l-0.04,0.12c-0.18,0.55-0.35,1.05-0.53,1.56l-0.09,0.25c-0.15,0.43-0.33,0.92-0.52,1.41    l-0.11,0.28c-0.17,0.43-0.36,0.91-0.56,1.39l-0.12,0.28c-0.19,0.44-0.39,0.91-0.61,1.39l-0.1,0.22c-0.23,0.5-0.45,0.96-0.68,1.42    l-9.02-4.32l8.97,4.42l-0.07,0.15c-0.23,0.46-0.47,0.92-0.71,1.38l-0.16,0.29c-0.21,0.4-0.47,0.86-0.74,1.32l-0.09,0.15    c-0.3,0.51-0.58,0.97-0.86,1.43c-0.02,0.02-0.07,0.12-0.09,0.14c-0.31,0.5-0.61,0.96-0.92,1.41c-0.03,0.04-0.06,0.09-0.09,0.13    c-0.32,0.46-0.64,0.93-0.98,1.39c-0.02,0.03-0.05,0.06-0.07,0.1c-0.33,0.46-0.69,0.93-1.06,1.39c-0.01,0.02-0.03,0.03-0.04,0.05    c-6.02,7.6-13.98,13.06-23.65,16.23c-0.03,0.01-0.07,0.02-0.1,0.03c-0.64,0.21-1.29,0.41-1.94,0.59    c-0.03,0.01-0.06,0.02-0.09,0.02c-0.65,0.18-1.3,0.36-1.96,0.52l-0.2,0.05c-0.59,0.15-1.25,0.3-1.92,0.44    c-0.04,0.01-0.08,0.02-0.12,0.02l-0.03,0.01c-0.66,0.14-1.34,0.27-2.02,0.39l-0.16,0.03c-0.69,0.12-1.38,0.23-2.07,0.33    l-0.24,0.03c-0.62,0.09-1.32,0.18-2.03,0.26l-0.24,0.02c-0.63,0.07-1.36,0.14-2.09,0.2c-0.03,0-0.12,0.01-0.14,0.01    c-0.74,0.06-1.49,0.11-2.26,0.15c-0.04,0-0.08,0-0.11,0.01c-0.77,0.04-1.55,0.07-2.34,0.08c-2.35,0.05-4.75,0.01-7.15-0.12    c-16.97-0.92-29.55-7.16-37.38-18.56c-9.32-13.56-9.1-31.21-7.39-43.3c-0.01,0-0.03,0-0.04,0l-0.75-0.03    c-0.8-0.03-1.56-0.06-2.31-0.11c-0.31-0.02-0.64-0.04-0.97-0.07c-0.73-0.06-1.45-0.12-2.16-0.2l-0.19-0.02    c-0.22-0.02-0.43-0.04-0.64-0.07c-0.97-0.12-1.92-0.25-2.86-0.41c-0.13-0.02-0.25-0.04-0.36-0.07c-0.85-0.15-1.65-0.31-2.45-0.48    c-0.21-0.04-0.46-0.1-0.71-0.16l-0.12-0.03c-0.66-0.15-1.31-0.31-1.96-0.48l-0.19-0.05c-0.22-0.06-0.44-0.12-0.65-0.18    c-0.74-0.21-1.51-0.44-2.27-0.69c-0.06-0.02-0.18-0.06-0.31-0.1c-0.87-0.29-1.72-0.6-2.56-0.93c-0.19-0.07-0.35-0.14-0.52-0.21    l-0.12-0.05c-0.61-0.25-1.25-0.52-1.87-0.8c-0.25-0.11-0.48-0.22-0.71-0.32c-0.63-0.3-1.27-0.61-1.89-0.93    c-0.19-0.1-0.34-0.17-0.48-0.25c-0.79-0.42-1.57-0.86-2.3-1.3c-0.06-0.04-0.2-0.12-0.26-0.16c-0.61-0.37-1.27-0.79-1.92-1.23    l-0.49-0.34c-0.59-0.41-1.14-0.81-1.68-1.22l-0.42-0.32c-1.37-1.06-2.68-2.18-3.9-3.36c-0.07-0.06-0.17-0.16-0.27-0.26    c-0.53-0.52-1.04-1.03-1.53-1.56l-0.32-0.35c-0.52-0.57-1.03-1.14-1.52-1.72c-0.03-0.04-0.07-0.08-0.1-0.12    c-1.09-1.31-2.11-2.69-3.07-4.12l-0.18-0.27c-0.43-0.66-0.85-1.32-1.24-1.99l-0.04-0.06c-0.89-1.53-1.69-3.05-2.4-4.6    c-0.01-0.02-0.03-0.06-0.04-0.08c-0.01-0.01-0.01-0.03-0.02-0.04c-0.33-0.73-0.65-1.47-0.94-2.22c-0.01-0.03-0.03-0.06-0.04-0.1    l-0.05-0.12c-0.9-2.27-1.67-4.72-2.26-7.21c-4.13-17.41,0.13-36.42,11.36-50.92c11.74-15.16,29.69-21.74,51.94-19.04    c0.14,0.02,0.27,0.03,0.41,0.05c-5.98-12.11-10-26.02-11.88-41.29c-3.1-25.24-0.35-54.23,7.95-83.84c0.74-2.63,1.57-5.24,2.5-7.8    c-2.81,0.28-5.77,0.43-8.84,0.35c-21.95-0.53-38.69-11.54-48.4-31.82c-8.41-17.55-6.85-35.39,4.26-48.95    C55.72,93.84,74.78,86.45,92.22,88.2c-3.01-21.31,3.03-45.13,27.6-60.51c22.89-14.34,53.75-7.6,71.78,15.66    c0.53,0.69,1.03,1.36,1.52,2.05c0.02,0.03,0.06,0.09,0.09,0.12c0.43,0.61,0.89,1.29,1.34,1.99l0.09,0.14    c0.42,0.65,0.85,1.35,1.26,2.05l0.07,0.12c0.42,0.71,0.81,1.41,1.19,2.12l0.1,0.18c0.38,0.72,0.73,1.42,1.07,2.12l0.13,0.26    c0.34,0.71,0.65,1.41,0.95,2.11l0.15,0.35c0.29,0.68,0.56,1.38,0.83,2.08l0.14,0.39c0.26,0.71,0.5,1.4,0.73,2.1l0.15,0.46    c0.22,0.7,0.42,1.39,0.62,2.09l0.15,0.56c0.17,0.65,0.34,1.33,0.5,2.03l0.14,0.6c0.15,0.68,0.28,1.36,0.41,2.05l0.12,0.68    c0.11,0.67,0.21,1.34,0.3,2.01l0.1,0.74c0.08,0.66,0.15,1.33,0.21,1.99l0.01,0.16c0.02,0.21,0.04,0.43,0.05,0.64    c0.05,0.66,0.08,1.31,0.11,1.96l0.01,0.15c0.01,0.24,0.02,0.49,0.03,0.73c0.02,0.64,0.02,1.28,0.02,1.93l0,0.2    c0,0.25,0,0.51-0.01,0.76c-0.01,0.61-0.04,1.25-0.07,1.89l-0.01,0.2c-0.01,0.27-0.03,0.54-0.04,0.81    c-0.04,0.61-0.1,1.24-0.15,1.86l-0.02,0.24c-0.03,0.28-0.05,0.56-0.08,0.83c-0.07,0.6-0.15,1.22-0.24,1.84l-0.03,0.22    c-0.04,0.29-0.08,0.58-0.13,0.88c-0.1,0.61-0.21,1.21-0.32,1.82l-0.05,0.25c-0.06,0.3-0.11,0.61-0.17,0.91    c-0.11,0.56-0.24,1.11-0.37,1.67l-0.1,0.42c-0.07,0.3-0.14,0.6-0.21,0.89c-0.14,0.56-0.29,1.11-0.45,1.66l-0.12,0.42    c-0.08,0.31-0.17,0.61-0.26,0.92c-0.16,0.53-0.33,1.05-0.5,1.57l-0.15,0.45c-0.11,0.33-0.21,0.66-0.33,1    c-0.17,0.49-0.35,0.98-0.54,1.47l-0.21,0.55c-0.04,0.12-0.09,0.23-0.13,0.35c16.28-4.57,27.94-5.83,28.65-5.91    c0.2-0.02,0.39-0.04,0.59-0.04c4.39-0.2,42.93-1.85,55.46,0.08c0.52,0.06,1.69,0.2,3.39,0.45c3.41,0.5,8.93,1.45,15.84,3.08    l7.38,1.87l1.85,0.51c-7.29-19-6.23-38.45,3.6-54.98c12.4-20.83,35.71-32.32,58.01-28.58c0.02,0,0.04,0.01,0.06,0.01    c0.01,0,0.03,0,0.04,0.01c0.83,0.14,1.65,0.3,2.47,0.48l0.17,0.04c0.82,0.19,1.59,0.38,2.35,0.59l0.31,0.09    c0.75,0.22,1.46,0.44,2.16,0.68l0.51,0.17c0.64,0.22,1.3,0.47,1.95,0.73l0.08,0.03c0.16,0.06,0.32,0.12,0.48,0.19    c0.65,0.27,1.26,0.54,1.87,0.83l0.08,0.03c0.2,0.09,0.41,0.18,0.61,0.28c0.58,0.28,1.18,0.59,1.78,0.91    c0.25,0.13,0.43,0.22,0.61,0.32c0.83,0.46,1.61,0.92,2.35,1.38c0.02,0.01,0.03,0.02,0.05,0.03l0,0c0.66,0.41,1.3,0.83,1.93,1.25    l0.61,0.42c0.41,0.28,0.83,0.57,1.24,0.86l0.67,0.49c0.38,0.28,0.74,0.55,1.1,0.82l0.68,0.53c0.36,0.29,0.71,0.57,1.06,0.85    l0.63,0.52c0.36,0.31,0.7,0.6,1.04,0.9l0.55,0.49c0.4,0.37,0.79,0.72,1.17,1.08l0.39,0.36c0.48,0.46,0.97,0.95,1.45,1.44    c0.06,0.06,0.16,0.17,0.26,0.28c0.36,0.38,0.74,0.79,1.11,1.2l0.44,0.5c0.29,0.33,0.59,0.67,0.87,1l0.42,0.51    c0.31,0.37,0.58,0.71,0.84,1.05l0.42,0.54c0.27,0.36,0.52,0.69,0.77,1.03l0.38,0.52c0.28,0.4,0.54,0.78,0.8,1.16l0.29,0.43    c0.69,1.05,1.35,2.13,1.97,3.22l0.17,0.3c0.25,0.45,0.48,0.88,0.71,1.32l0.24,0.48c0.19,0.38,0.38,0.76,0.56,1.14l0.25,0.53    c0.18,0.38,0.34,0.75,0.51,1.12l0.22,0.52c0.17,0.4,0.33,0.8,0.49,1.19l0.18,0.45c0.18,0.46,0.35,0.92,0.52,1.39l0.1,0.28    c0.36,1.02,0.72,2.14,1.04,3.26l0.07,0.24c0.14,0.51,0.26,0.95,0.37,1.38l0.09,0.36c0.12,0.47,0.21,0.87,0.3,1.27l0.09,0.42    c0.09,0.43,0.17,0.83,0.25,1.22l0.08,0.41c0.08,0.44,0.16,0.87,0.23,1.3l0.05,0.29c0.24,1.55,0.43,3.15,0.56,4.75l0.02,0.26    c0.03,0.44,0.06,0.86,0.08,1.27l0.02,0.37c0.02,0.39,0.03,0.78,0.05,1.16l0.01,0.33c0.01,0.43,0.02,0.83,0.02,1.22l0,0.27    c0,0.47,0,0.92-0.01,1.37c0,0,0,0.1,0,0.11c-0.02,0.99-0.06,1.97-0.11,2.94c0,0.03-0.01,0.1-0.01,0.16    c-0.03,0.41-0.05,0.82-0.09,1.22l-0.02,0.19c0,0.02-0.01,0.09-0.01,0.1c-0.03,0.36-0.06,0.72-0.1,1.07l-0.03,0.3    c-0.04,0.37-0.08,0.72-0.12,1.06l-0.04,0.32c-0.04,0.33-0.09,0.69-0.13,1.04l-0.03,0.22c-0.02,0.14-0.04,0.27-0.06,0.41    c6.01-0.61,12.37-0.15,18.75,1.44c15.09,3.75,27.38,12.94,33.73,25.21l0.09,0.17c0.84,1.64,1.55,3.29,2.15,4.95l0.09,0.25    c0.27,0.77,0.52,1.56,0.75,2.36l0.1,0.34c0.46,1.66,0.82,3.44,1.08,5.24l0.07,0.54c0.1,0.82,0.18,1.61,0.23,2.39    c0.01,0.09,0.01,0.19,0.02,0.28c0.05,0.9,0.08,1.83,0.08,2.79l-0.01,0.45c-0.01,0.83-0.05,1.6-0.1,2.37l-0.04,0.62    c-0.08,1.02-0.19,1.94-0.31,2.82c-0.01,0.07-0.02,0.15-0.04,0.23c-0.11,0.77-0.27,1.62-0.46,2.56l-0.15,0.7    c-0.18,0.82-0.37,1.59-0.58,2.37c-0.06,0.23-0.1,0.4-0.15,0.57c-0.25,0.89-0.54,1.83-0.87,2.79c-0.06,0.18-0.12,0.35-0.18,0.52    l-0.05,0.13c-0.27,0.76-0.55,1.51-0.86,2.26c-0.11,0.26-0.21,0.53-0.33,0.8c-0.43,1.03-0.85,1.96-1.27,2.84    c-0.01,0.01-0.01,0.02-0.02,0.04c-3.81,7.95-8.78,14.55-14.76,19.61c-1.53,1.29-3.15,2.51-4.82,3.6c-1.08,0.71-2.2,1.38-3.32,2    c-0.55,0.31-1.12,0.6-1.69,0.89c-1.09,0.55-2.24,1.07-3.38,1.55c-1.1,0.46-2.25,0.88-3.4,1.27c-1.1,0.37-2.24,0.7-3.38,1    c-1.12,0.29-2.25,0.55-3.38,0.77c-1.62,0.32-3.29,0.57-4.96,0.75c-4.95,0.54-9.75,0.44-14.15-0.01c0.01,0.02,0.01,0.04,0.02,0.05    c0.14,0.38,0.28,0.77,0.41,1.16c0.26,0.75,0.51,1.5,0.75,2.25l0.09,0.28c0.08,0.25,0.16,0.5,0.24,0.75    c0.34,1.09,0.67,2.19,0.99,3.32c1.79,6.37,3.34,12.79,4.61,19.08c0.26,1.26,0.5,2.52,0.73,3.78c0.93,5,1.71,10.02,2.3,14.92    c0.6,4.92,1.03,9.83,1.28,14.6c0.19,3.6,0.28,7.2,0.28,10.7c0,2.37-0.06,4.78-0.15,7.16c-0.38,9.26-1.47,18.19-3.26,26.54    c-0.23,1.07-0.47,2.12-0.72,3.17c-0.66,2.76-1.43,5.57-2.3,8.36c-0.47,1.5-0.88,2.76-1.29,3.94c-0.35,1-0.71,1.99-1.08,2.96    c-1.28,3.4-2.73,6.71-4.31,9.91c0.13-0.02,0.25-0.03,0.38-0.05c22.24-2.7,40.2,3.88,51.94,19.04c5.29,6.83,9.16,14.92,11.2,23.4    c0.15,0.6,0.27,1.18,0.4,1.76c0,0,0.02,0.12,0.03,0.12c0.12,0.56,0.23,1.12,0.33,1.68c0,0.01,0.03,0.15,0.03,0.16    c0.1,0.56,0.19,1.12,0.27,1.68l0.03,0.2c0.08,0.51,0.15,1.08,0.22,1.66c0.5,4.3,0.54,8.54,0.13,12.69l-0.01,0.15    c-0.06,0.55-0.12,1.06-0.18,1.57l-0.04,0.35c-0.06,0.48-0.14,0.95-0.21,1.43l-0.07,0.45c-0.08,0.45-0.16,0.91-0.25,1.37l-0.1,0.5    c-0.09,0.44-0.19,0.88-0.29,1.32l-0.12,0.52c-0.1,0.43-0.21,0.87-0.33,1.31l-0.14,0.5c-0.12,0.43-0.24,0.87-0.38,1.31l-0.11,0.36    c0,0.01-0.03,0.09-0.03,0.1c-0.14,0.45-0.29,0.9-0.44,1.35c-0.02,0.07-0.07,0.21-0.12,0.34c-0.71,2.02-1.56,4.04-2.53,5.98    l-0.27,0.54c-0.16,0.32-0.33,0.63-0.5,0.94l-0.12,0.22c-0.1,0.19-0.21,0.38-0.31,0.57c-0.17,0.31-0.36,0.63-0.55,0.95l-0.06,0.1    c-0.12,0.21-0.25,0.41-0.37,0.62c-0.19,0.31-0.38,0.61-0.58,0.91c-0.18,0.27-0.33,0.5-0.48,0.73c-0.2,0.3-0.4,0.58-0.6,0.87    c-0.17,0.25-0.35,0.49-0.53,0.74c-0.21,0.28-0.41,0.56-0.62,0.83c-0.2,0.25-0.38,0.49-0.57,0.73c-0.22,0.28-0.43,0.53-0.64,0.79    c-0.24,0.28-0.45,0.53-0.66,0.77c-0.22,0.26-0.44,0.5-0.65,0.74c-0.19,0.21-0.39,0.43-0.6,0.65l-0.19,0.21    c-0.19,0.2-0.38,0.41-0.58,0.6c-0.19,0.2-0.42,0.42-0.64,0.64l-0.23,0.23c-0.18,0.18-0.36,0.36-0.55,0.53    c-0.36,0.34-0.74,0.68-1.12,1.01c-0.22,0.19-0.46,0.4-0.7,0.6c-0.39,0.33-0.79,0.66-1.19,0.98c-0.19,0.15-0.35,0.28-0.52,0.4    l-0.21,0.16c-0.3,0.23-0.6,0.46-0.9,0.68c-0.21,0.15-0.41,0.29-0.61,0.43l-0.13,0.09c-0.33,0.23-0.65,0.46-0.98,0.67    c-0.18,0.12-0.4,0.26-0.62,0.4l-0.13,0.08c-0.33,0.21-0.67,0.43-1.01,0.63c-0.23,0.14-0.51,0.3-0.78,0.46    c-0.33,0.19-0.67,0.38-1.01,0.57c-0.28,0.16-0.56,0.3-0.83,0.45c-0.36,0.19-0.72,0.37-1.08,0.55c-0.26,0.13-0.55,0.27-0.84,0.41    c-0.35,0.17-0.73,0.34-1.1,0.5c-0.28,0.13-0.57,0.25-0.86,0.38c-0.38,0.16-0.78,0.32-1.17,0.48l-0.14,0.06    c-0.24,0.1-0.49,0.19-0.73,0.29c-0.39,0.15-0.82,0.3-1.25,0.45l-0.14,0.05c-0.23,0.08-0.46,0.16-0.69,0.24    c-0.44,0.15-0.92,0.29-1.41,0.44l-0.65,0.2c-1.48,0.43-2.97,0.8-4.47,1.11c-0.19,0.04-0.38,0.08-0.57,0.11l-0.16,0.03    c-0.51,0.1-1.03,0.2-1.56,0.29c-0.22,0.04-0.46,0.07-0.71,0.11l-0.19,0.03c-0.47,0.07-0.95,0.15-1.44,0.21    c-0.23,0.03-0.49,0.06-0.75,0.09l-0.21,0.03c-0.47,0.06-0.94,0.11-1.41,0.15c-0.29,0.03-0.59,0.05-0.88,0.08l-0.14,0.01    c-0.49,0.04-0.96,0.07-1.43,0.1c-0.34,0.02-0.69,0.04-1.05,0.06c-0.49,0.02-0.97,0.04-1.45,0.05c-0.11,0-0.23,0.01-0.34,0.01    c0.61,4.21,0.92,8.35,0.94,12.35c0,0.54,0,1.09-0.01,1.65c-0.02,1.1-0.06,2.18-0.12,3.24c-0.07,1.13-0.16,2.26-0.28,3.36    c-0.13,1.15-0.29,2.3-0.47,3.42c-0.51,3.04-1.24,5.96-2.17,8.68c-0.83,2.42-1.85,4.74-3.01,6.89    c-5.85,10.79-15.92,18.02-29.12,20.9c-3.29,0.72-6.84,1.18-10.54,1.38c-0.96,0.05-1.91,0.09-2.85,0.11    c-0.2,0.01-0.43,0.01-0.66,0.01l-0.25,0C375.38,491.81,374.84,491.82,374.3,491.82z M326.51,405.54c2.79,0,5.46,1.17,7.36,3.23    c1.96,2.13,2.9,5,2.58,7.88c-2.37,21.32,0.15,47.97,25.64,53.88c0.55,0.13,1.11,0.24,1.67,0.35l0.47,0.08    c0.44,0.08,0.85,0.15,1.27,0.22l0.66,0.09c0.38,0.05,0.77,0.11,1.15,0.15c0.24,0.03,0.49,0.05,0.74,0.08    c0.4,0.04,0.78,0.08,1.17,0.11c0.26,0.02,0.53,0.04,0.79,0.06c0.4,0.03,0.8,0.05,1.19,0.07c0.29,0.01,0.57,0.03,0.85,0.04    c0.42,0.01,0.85,0.02,1.28,0.03l0.85,0.01c0.45,0,0.96-0.01,1.45-0.01l0.7-0.01c0.77-0.02,1.53-0.05,2.3-0.09    c2.65-0.14,5.12-0.46,7.37-0.95c7.55-1.65,12.72-5.21,15.81-10.89c0.64-1.18,1.21-2.48,1.68-3.86c0.58-1.68,1.03-3.51,1.36-5.46    c0.12-0.75,0.23-1.53,0.32-2.33c0.08-0.77,0.15-1.57,0.2-2.37c0.05-0.79,0.08-1.58,0.09-2.36c0.01-0.41,0.01-0.82,0.01-1.22    c-0.05-10.08-2.65-18.98-2.98-20.06c-0.4-1.21-0.58-2.52-0.49-3.87c0.37-5.24,4.73-9.3,9.98-9.3c0.78,0,1.5,0.07,2.17,0.2    c0.47,0.06,0.93,0.12,1.4,0.17l0.67,0.07c0.5,0.05,0.97,0.1,1.43,0.14l0.79,0.06c0.42,0.03,0.83,0.06,1.24,0.08    c0.22,0.01,0.44,0.02,0.67,0.03l0.14,0c0.41,0.02,0.79,0.03,1.16,0.04c0.43,0.01,0.83,0.01,1.25,0.01c0.22,0,0.44,0,0.66,0    c0.26,0,0.52-0.01,0.78-0.02c0.37-0.01,0.72-0.02,1.06-0.04c0.24-0.01,0.51-0.03,0.77-0.04c0.35-0.02,0.68-0.05,1.02-0.07    l0.72-0.06c0.34-0.03,0.67-0.07,0.99-0.11l0.68-0.08c0.36-0.05,0.69-0.1,1.01-0.15l0.61-0.09c0.38-0.06,0.72-0.13,1.06-0.2    l0.52-0.1c0.99-0.21,1.98-0.45,2.93-0.72l0.45-0.14c0.3-0.09,0.61-0.19,0.92-0.29l0.52-0.18c0.28-0.1,0.54-0.19,0.8-0.29    l0.54-0.21c0.25-0.1,0.49-0.19,0.73-0.29c0.19-0.08,0.36-0.16,0.53-0.24c0.23-0.1,0.46-0.21,0.69-0.31    c0.18-0.09,0.35-0.17,0.51-0.25c0.24-0.12,0.46-0.23,0.67-0.34c0.16-0.09,0.33-0.18,0.5-0.27c0.2-0.11,0.41-0.23,0.62-0.35    c0.16-0.09,0.31-0.18,0.47-0.28c0.23-0.14,0.42-0.26,0.61-0.38l0.44-0.28c0.22-0.15,0.4-0.27,0.58-0.4l0.46-0.32    c0.16-0.12,0.33-0.25,0.5-0.38l0.48-0.36c0.21-0.17,0.45-0.37,0.68-0.56c0.13-0.11,0.27-0.23,0.4-0.34    c0.24-0.21,0.47-0.41,0.69-0.62l0.52-0.5c0.1-0.1,0.21-0.2,0.31-0.3l0.39-0.41c0,0,0,0,0,0l0.11-0.11c0.1-0.1,0.2-0.21,0.29-0.31    c0.13-0.15,0.25-0.28,0.36-0.41c0.17-0.2,0.3-0.35,0.42-0.5c0.11-0.13,0.24-0.29,0.37-0.46l0.34-0.43    c0.11-0.15,0.24-0.31,0.36-0.48l0.31-0.43c0.12-0.18,0.25-0.35,0.36-0.53l0.28-0.43c0.11-0.18,0.23-0.36,0.35-0.54l0.26-0.43    c0.11-0.18,0.22-0.37,0.33-0.57l0.28-0.52c0.09-0.17,0.19-0.34,0.27-0.51l0.16-0.32c0.6-1.21,1.13-2.45,1.57-3.71l0.08-0.23    c0.1-0.3,0.18-0.56,0.26-0.81l0.07-0.21c0.1-0.34,0.18-0.62,0.26-0.89l0.08-0.3c0.08-0.3,0.15-0.57,0.21-0.85l0.08-0.32    c0.07-0.29,0.13-0.57,0.19-0.85l0.06-0.31c0.06-0.3,0.11-0.59,0.16-0.88l0.04-0.25c0.06-0.35,0.1-0.66,0.15-0.97    c0-0.01,0.02-0.19,0.02-0.19c0.05-0.37,0.09-0.7,0.12-1.03l0.01-0.1c0.27-2.76,0.24-5.57-0.08-8.39c-0.05-0.43-0.1-0.82-0.16-1.2    l9.88-1.57l-9.89,1.46c-0.06-0.38-0.12-0.76-0.18-1.13l-0.03-0.15c-0.06-0.33-0.13-0.71-0.21-1.09c-0.1-0.48-0.19-0.86-0.28-1.25    c-1.39-5.77-4-11.24-7.57-15.85c-17.77-22.96-55.35-5.49-56.05-5.16c-4.33,2.09-9.54,0.8-12.4-3.08    c-2.88-3.92-2.53-9.35,0.84-12.86c3.6-3.74,6.86-8.01,9.7-12.69c0.4-0.66,0.8-1.33,1.18-2.01c2.21-3.88,4.17-8.07,5.81-12.42    c0.31-0.81,0.61-1.63,0.89-2.46c0.38-1.08,0.73-2.18,1.07-3.29c0.73-2.37,1.39-4.75,1.94-7.07c0.21-0.9,0.42-1.8,0.61-2.71    c1.55-7.25,2.5-15.04,2.83-23.18c0.09-2.12,0.13-4.26,0.14-6.38c0-3.14-0.08-6.37-0.25-9.61c-0.23-4.32-0.62-8.78-1.16-13.24    c-0.54-4.48-1.25-9.08-2.11-13.67c-0.22-1.16-0.44-2.31-0.68-3.47c-1.18-5.81-2.61-11.75-4.27-17.64    c-0.26-0.93-0.53-1.84-0.82-2.74l-0.28-0.85c-0.2-0.62-0.41-1.24-0.62-1.85c-0.11-0.31-0.22-0.64-0.34-0.96    c-0.21-0.57-0.41-1.14-0.63-1.7l-0.36-0.93c-0.24-0.6-0.48-1.2-0.73-1.79l-0.32-0.77c-0.35-0.82-0.72-1.65-1.1-2.46l-0.1-0.2    c-0.35-0.75-0.71-1.48-1.07-2.21l-0.4-0.77c-0.27-0.53-0.55-1.07-0.84-1.6l-0.46-0.84c-0.28-0.51-0.57-1.01-0.85-1.51l-0.46-0.79    c0,0-0.05-0.09-0.06-0.09l-0.34-0.57c-2.5-4.15-1.66-9.49,1.99-12.68c3.01-2.63,7.22-3.17,10.72-1.58    c1.33,0.54,13.16,5.17,25.79,3.8c1.11-0.12,2.21-0.29,3.27-0.5c0.73-0.14,1.45-0.31,2.16-0.49c0.72-0.19,1.44-0.4,2.12-0.63    c0.71-0.23,1.41-0.5,2.08-0.77c0.7-0.29,1.38-0.6,2.05-0.94c0.34-0.17,0.67-0.35,1-0.53c0.67-0.37,1.34-0.77,1.99-1.2    c0.99-0.65,1.97-1.38,2.88-2.16c3.82-3.23,7.07-7.61,9.66-13.01c0,0,0-0.01,0.01-0.01c0.31-0.65,0.59-1.29,0.86-1.93l0.21-0.51    c0.21-0.53,0.4-1.02,0.57-1.51l0.16-0.43c0.2-0.58,0.38-1.17,0.55-1.76l0.09-0.36c0.13-0.47,0.24-0.94,0.34-1.4l0.1-0.46    c0.1-0.51,0.2-1.03,0.28-1.54c0.01-0.05,0.02-0.12,0.03-0.19c0.06-0.4,0.11-0.9,0.16-1.47l0.02-0.36    c0.03-0.41,0.05-0.84,0.05-1.25l0.01-0.26c0-0.51-0.01-0.99-0.03-1.43l-0.01-0.11c-0.03-0.51-0.08-0.95-0.13-1.38l-0.03-0.25    c-0.13-0.95-0.32-1.86-0.56-2.73c-0.01-0.02-0.03-0.09-0.03-0.11c-0.12-0.44-0.25-0.84-0.39-1.24c-0.01-0.03-0.05-0.14-0.06-0.16    c-0.3-0.83-0.67-1.68-1.09-2.51l-0.06-0.12c-3.65-7.06-11.43-12.66-20.8-14.99c-8.63-2.14-17.15-1.09-22.8,2.82    c-3.71,2.57-8.69,2.33-12.14-0.58c-3.45-2.91-4.52-7.78-2.61-11.87c0,0,0,0,0,0s0.24-0.54,0.6-1.47c0,0,0-0.01,0.01-0.02    l0.12-0.32c0,0,0,0,0,0c0.01-0.02,0.01-0.04,0.02-0.06c0.17-0.46,0.36-0.99,0.56-1.58l0.94-3.05c0.13-0.48,0.27-0.98,0.39-1.49    l0.75-3.38c0-0.02,0.02-0.08,0.02-0.1c0.19-1.01,0.34-1.94,0.47-2.87l0.02-0.18c0.03-0.25,0.07-0.5,0.1-0.76l0.01-0.12    c0-0.01,0.01-0.11,0.01-0.12c0.03-0.25,0.06-0.5,0.08-0.75l0.02-0.25c0.02-0.25,0.05-0.52,0.07-0.79l0.01-0.13    c0.03-0.36,0.05-0.67,0.07-0.98c0-0.04,0.01-0.08,0.01-0.12c0.04-0.65,0.07-1.35,0.08-2.06c0.01-0.4,0.01-0.71,0.01-1.02l0-0.18    c0-0.32-0.01-0.59-0.01-0.87l-0.01-0.28c-0.01-0.25-0.02-0.52-0.03-0.8l-0.01-0.26c-0.01-0.27-0.03-0.55-0.05-0.83    c0-0.03-0.01-0.14-0.01-0.17c-0.09-1.13-0.22-2.21-0.38-3.26l-0.03-0.19c-0.05-0.3-0.1-0.58-0.15-0.87l-0.05-0.25    c-0.05-0.28-0.11-0.55-0.16-0.81l-0.07-0.32c-0.05-0.23-0.11-0.49-0.18-0.76c0,0-0.02-0.1-0.02-0.1l-0.04-0.18    c-0.07-0.28-0.15-0.57-0.23-0.85l-0.05-0.18c-0.21-0.74-0.44-1.46-0.68-2.14c-0.02-0.05-0.05-0.14-0.07-0.18    c-0.09-0.26-0.2-0.56-0.32-0.85l-0.11-0.28c-0.1-0.26-0.2-0.5-0.31-0.76l-0.15-0.36c-0.09-0.21-0.2-0.45-0.31-0.69l-0.15-0.32    c-0.12-0.24-0.24-0.49-0.36-0.73l-0.16-0.32c-0.14-0.26-0.28-0.53-0.43-0.8l-0.12-0.23c-0.37-0.66-0.79-1.35-1.23-2.01l-0.19-0.29    c-0.16-0.24-0.32-0.48-0.49-0.72l-0.25-0.35c-0.16-0.21-0.32-0.43-0.49-0.66l-0.26-0.34c-0.18-0.23-0.35-0.44-0.52-0.64    l-0.32-0.38c-0.17-0.2-0.37-0.43-0.57-0.66l-0.27-0.31c-0.26-0.28-0.51-0.55-0.77-0.82l-0.18-0.19c-0.33-0.34-0.63-0.64-0.94-0.94    l-0.25-0.24c-0.25-0.23-0.51-0.48-0.78-0.72l-0.4-0.35c-0.23-0.2-0.47-0.41-0.71-0.62l-0.37-0.31c-0.31-0.25-0.55-0.45-0.79-0.64    l-0.5-0.39c-0.23-0.17-0.49-0.37-0.76-0.57l-0.48-0.35c-0.3-0.22-0.6-0.42-0.9-0.63l-0.43-0.3c-0.45-0.3-0.9-0.6-1.37-0.89    c-0.01-0.01-0.02-0.01-0.04-0.02l0,0c-0.47-0.29-0.95-0.57-1.43-0.84l-0.38-0.2c-0.35-0.19-0.7-0.37-1.06-0.54l-0.39-0.17    c-0.38-0.18-0.75-0.34-1.11-0.5l-0.32-0.12c-0.4-0.16-0.78-0.31-1.17-0.44l-0.28-0.09c-0.43-0.14-0.85-0.28-1.27-0.4l-0.24-0.06    c-0.42-0.12-0.88-0.23-1.33-0.34c-0.06-0.01-0.07-0.01-0.13-0.03c-0.49-0.11-0.97-0.2-1.46-0.29c-0.02,0-0.04-0.01-0.06-0.01    c-14.01-2.34-29.43,5.51-37.51,19.09c-9.64,16.2-6.64,36.43,8.23,55.48l0.14,0.18c0.32,0.42,0.64,0.83,0.98,1.25    c2.9,3.57,2.99,8.67,0.21,12.34c-2.78,3.67-7.7,4.97-11.93,3.15l-1.44-0.61c-0.45-0.19-0.92-0.38-1.38-0.58l-0.66-0.27    c-0.63-0.26-1.26-0.51-1.89-0.76l-0.27-0.11c-0.62-0.24-1.24-0.48-1.87-0.72l-0.73-0.27c-0.43-0.16-0.86-0.32-1.28-0.48    l-4.76-1.67c-0.58-0.19-1.16-0.38-1.73-0.57l-0.61-0.2c-0.48-0.15-0.93-0.3-1.38-0.44l-14.19-3.89    c-6.27-1.47-11.2-2.32-14.23-2.77c-1.8-0.27-2.81-0.37-2.82-0.38c-0.19-0.02-0.39-0.05-0.58-0.08c-7.61-1.24-35.34-0.6-51.29,0.11    c-2.57,0.31-24.68,3.19-49.01,13.68c-4.56,1.96-9.87,0.29-12.47-3.93c-2.32-3.76-1.87-8.52,0.93-11.77    c0.61-0.75,1.2-1.51,1.77-2.26c0.09-0.12,0.18-0.24,0.26-0.36l0.55-0.75c0.33-0.45,0.66-0.89,0.97-1.34    c0.11-0.15,0.21-0.3,0.31-0.46l0.6-0.89c0.24-0.35,0.48-0.71,0.71-1.06c0.12-0.19,0.24-0.37,0.35-0.56l0.51-0.81    c0.21-0.34,0.43-0.68,0.63-1.02c0.12-0.2,0.22-0.38,0.33-0.57l0.49-0.85c0.18-0.31,0.36-0.62,0.53-0.93    c0.11-0.2,0.21-0.4,0.31-0.6l0.42-0.81c0.16-0.31,0.32-0.61,0.47-0.92c0.1-0.19,0.18-0.38,0.27-0.56l0.35-0.74    c0.16-0.33,0.31-0.66,0.46-0.98c0.08-0.18,0.16-0.37,0.23-0.55l0.29-0.69c0.14-0.34,0.29-0.67,0.42-1.01    c0.08-0.19,0.14-0.38,0.21-0.56l0.25-0.66c0.13-0.34,0.25-0.67,0.37-1.01c0.06-0.18,0.12-0.36,0.18-0.54l0.19-0.58    c0.12-0.35,0.23-0.71,0.34-1.06c0.05-0.16,0.09-0.33,0.14-0.49l0.14-0.5c0.11-0.39,0.22-0.77,0.32-1.16    c0.04-0.15,0.07-0.31,0.11-0.47l0.11-0.49c0.09-0.39,0.18-0.77,0.26-1.15c0.03-0.16,0.06-0.32,0.09-0.47l0.06-0.33    c0.08-0.43,0.16-0.86,0.23-1.28l0.11-0.76c0.06-0.44,0.12-0.86,0.17-1.28l0.07-0.73c0.04-0.42,0.08-0.85,0.11-1.28l0.03-0.68    c0.02-0.44,0.04-0.87,0.05-1.29l0-0.64c0-0.44,0-0.87-0.01-1.3l-0.02-0.58c-0.02-0.46-0.04-0.89-0.07-1.33L184,76.5    c-0.04-0.45-0.08-0.89-0.14-1.33l-0.06-0.48c-0.06-0.47-0.13-0.91-0.2-1.36l-0.08-0.46c-0.08-0.45-0.17-0.9-0.26-1.34l-0.09-0.4    c-0.1-0.46-0.21-0.91-0.33-1.36l-0.07-0.27c-0.15-0.55-0.29-1.01-0.43-1.46l-0.1-0.32c-0.15-0.45-0.31-0.91-0.47-1.37l-0.11-0.29    c-0.17-0.44-0.35-0.91-0.54-1.37l-0.08-0.2c-0.21-0.49-0.42-0.96-0.64-1.42l-0.1-0.21c-0.21-0.44-0.45-0.91-0.69-1.37l-0.08-0.15    c-0.25-0.47-0.5-0.92-0.77-1.38l8.55-5.19l-8.62,5.07c-0.27-0.47-0.56-0.92-0.85-1.38l-0.08-0.12c-0.27-0.41-0.58-0.87-0.9-1.32    c-0.02-0.03-0.06-0.09-0.08-0.12c-0.28-0.39-0.61-0.84-0.95-1.28c-9.97-12.86-29.25-21.07-45.37-10.98    c-25.56,16-19.26,42.22-15.37,52.75c0.48,1.3,0.81,2.03,0.82,2.04c1.87,4.1,0.78,8.96-2.67,11.84c-3.45,2.89-8.41,3.13-12.11,0.56    c-0.3-0.21-0.6-0.4-0.91-0.58l-0.26-0.15c-0.25-0.15-0.49-0.28-0.73-0.41l-0.27-0.14c-0.32-0.17-0.62-0.31-0.91-0.44    c-0.04-0.02-0.13-0.06-0.2-0.09c-0.34-0.15-0.7-0.29-1.06-0.43c-0.02-0.01-0.05-0.02-0.07-0.03l0,0c-0.36-0.14-0.73-0.26-1.1-0.38    l-0.18-0.06c-0.37-0.11-0.76-0.22-1.15-0.33c-0.04-0.01-0.07-0.02-0.11-0.03c-11.54-2.9-26.42,1.97-33.91,11.11    c-6.25,7.63-6.82,16.92-1.69,27.63c6.43,13.42,16.52,20.12,30.85,20.47c11.4,0.26,21.11-3.61,22.2-4.07    c3.48-1.56,7.65-1.03,10.64,1.56c3.68,3.18,4.54,8.54,2.03,12.7c-4.24,7.04-7.53,14.66-9.77,22.64    c-15.43,55-9.55,103.55,15.73,129.86c3.37,3.51,3.73,8.94,0.84,12.86c-2.86,3.88-8.07,5.17-12.4,3.08    c-0.69-0.33-38.27-17.8-56.05,5.16c-7.46,9.63-10.42,22.65-7.73,33.98c0.39,1.62,0.87,3.15,1.44,4.61l0.03,0.09    c0.18,0.46,0.38,0.92,0.59,1.37c0.02,0.04,0.04,0.08,0.05,0.11c0.41,0.9,0.89,1.82,1.4,2.69l0.09,0.15    c0.2,0.34,0.45,0.73,0.7,1.12l0.15,0.22c0.51,0.77,1.09,1.56,1.7,2.29c0.03,0.03,0.06,0.07,0.09,0.1c0.3,0.36,0.61,0.72,0.93,1.06    l0.21,0.23c0.26,0.28,0.56,0.58,0.86,0.88l0.16,0.16c0.72,0.69,1.49,1.35,2.29,1.97l0.24,0.18c0.34,0.25,0.67,0.49,1.01,0.73    l0.31,0.21c0.39,0.26,0.78,0.51,1.18,0.76c0.04,0.02,0.12,0.07,0.17,0.11c0.44,0.26,0.89,0.51,1.34,0.75l0.31,0.16    c0.36,0.19,0.74,0.38,1.14,0.56l0.44,0.2c0.38,0.17,0.77,0.34,1.17,0.5l0.39,0.16c0.5,0.19,1.02,0.39,1.57,0.57l0.28,0.09    c0.45,0.15,0.95,0.3,1.47,0.44l0.56,0.15c0.4,0.11,0.84,0.22,1.29,0.32l0.52,0.12c0.6,0.13,1.16,0.24,1.74,0.34    c0.08,0.01,0.18,0.03,0.28,0.05c0.61,0.1,1.25,0.19,1.9,0.27l0.57,0.06c0.51,0.06,1.02,0.11,1.54,0.15    c0.22,0.02,0.45,0.04,0.68,0.05c0.57,0.04,1.13,0.06,1.69,0.08l0.59,0.02c0.71,0.01,1.48,0.02,2.26,0.01l0.46-0.02    c0.67-0.02,1.31-0.04,1.95-0.08c0.27-0.01,0.53-0.03,0.78-0.05c0.62-0.04,1.22-0.09,1.82-0.15l0.79-0.08    c0.85-0.09,1.72-0.19,2.61-0.32c3.66-0.52,7.29,1.02,9.47,4c1.88,2.57,2.42,5.9,1.46,8.94c-2.24,7.06-6.29,27.98,1.84,39.75    c4.2,6.08,11.38,9.31,21.96,9.88c1.89,0.1,3.79,0.13,5.64,0.09c0.61-0.01,1.21-0.03,1.79-0.06c0.03,0,0.06,0,0.08,0    c0.56-0.03,1.12-0.06,1.67-0.11c0.02,0,0.11-0.01,0.13-0.01c0.52-0.04,1.05-0.09,1.58-0.15l0.21-0.02    c0.43-0.05,0.93-0.11,1.43-0.18c0.03,0,0.07-0.01,0.1-0.01c0.54-0.08,1.02-0.15,1.5-0.24l0.11-0.02c0.48-0.08,0.94-0.17,1.4-0.27    c0.04-0.01,0.08-0.02,0.11-0.02l0,0c0.46-0.1,0.92-0.2,1.36-0.31l0.16-0.04c0.35-0.09,0.79-0.2,1.22-0.33    c0.03-0.01,0.05-0.02,0.08-0.02c0.41-0.12,0.82-0.24,1.22-0.37c0.02-0.01,0.04-0.01,0.06-0.02c5.99-1.95,10.65-5.12,14.25-9.68    c0.01-0.01,0.02-0.03,0.03-0.04c0.21-0.26,0.41-0.53,0.61-0.8c0.01-0.01,0.03-0.05,0.06-0.08c0.19-0.27,0.39-0.54,0.57-0.81    l0.06-0.09c0.19-0.28,0.37-0.56,0.55-0.85c0.01-0.01,0.06-0.09,0.07-0.1c0.17-0.28,0.35-0.57,0.52-0.86l8.71,4.92l-8.65-5.02    c0.18-0.31,0.34-0.6,0.5-0.9c0,0,0.1-0.18,0.1-0.19c0.13-0.25,0.29-0.55,0.44-0.85l0.1-0.2c0.12-0.25,0.27-0.56,0.41-0.87    l0.08-0.18c0.13-0.29,0.27-0.6,0.4-0.91c0-0.01,0.06-0.13,0.06-0.14c0.15-0.35,0.28-0.67,0.4-1c0.01-0.02,0.06-0.15,0.07-0.17    c0.12-0.31,0.24-0.65,0.37-0.99c0.01-0.02,0.03-0.08,0.04-0.1c0.14-0.39,0.26-0.74,0.37-1.1l0.03-0.09    c0.12-0.36,0.23-0.73,0.34-1.1c0-0.01,0.01-0.03,0.01-0.04c0.93-3.17,1.61-6.65,2.01-10.35l0.02-0.17    c0.04-0.4,0.08-0.76,0.11-1.13l0.03-0.37c0.03-0.32,0.05-0.66,0.08-1l0.03-0.42c0.02-0.35,0.04-0.67,0.06-0.99l0.13-5.03    l-0.27-6.94l-0.4-4.3c-0.32-2.88,0.61-5.75,2.57-7.88s4.74-3.33,7.64-3.23l0.84,0.03c0.1,0,0.21,0,0.31,0    c1.24,0,2.44-0.06,3.6-0.17l0.4-0.04c0.97-0.1,1.98-0.25,2.97-0.45c0.79-0.15,1.58-0.34,2.37-0.56c2.01-0.56,3.93-1.32,5.72-2.26    c0.44-0.23,0.87-0.47,1.29-0.72c2.14-1.27,4.08-2.8,5.78-4.54c0.84-0.86,1.62-1.77,2.32-2.71c0.19-0.25,0.36-0.49,0.51-0.71    c0.43-0.63,0.68-1.06,0.76-1.21c1.91-3.96,6.13-6.21,10.47-5.53c4.35,0.67,7.68,4.11,8.3,8.47c0.12,0.59,1.37,6.31,5.67,10.18    l0.2,0.17c1.24,1.07,2.66,1.92,4.24,2.52c0.78,0.3,1.62,0.54,2.51,0.72c1.55,0.32,3.13,0.45,4.85,0.43    c0.58-0.01,1.18-0.04,1.78-0.09c0.26-0.02,0.52-0.03,0.78-0.03h9.11c0.26,0,0.52,0.01,0.78,0.03c0.59,0.05,1.19,0.08,1.78,0.09    c1.66,0.02,3.2-0.1,4.69-0.39c0.98-0.19,1.91-0.46,2.78-0.8c0.5-0.2,0.89-0.36,1.19-0.51c0.28-0.14,0.56-0.29,0.84-0.45    c0.62-0.36,1.22-0.79,1.84-1.3c0.42-0.34,0.76-0.65,1.03-0.92c3.85-3.84,4.99-9.08,5.11-9.65c0.7-4.92,4.89-8.38,9.87-8.38    c3.74,0,7.17,2.09,8.89,5.41c0,0,0,0,0,0c0,0,0.26,0.48,0.78,1.24c0.15,0.21,0.32,0.46,0.51,0.71c0.2,0.27,0.42,0.55,0.65,0.84    c0.28,0.35,0.6,0.72,0.94,1.1c0.01,0.01,0.07,0.08,0.08,0.09c2.53,2.76,6.9,6.41,13.53,8.23c0.75,0.21,1.38,0.36,1.97,0.48    c2.37,0.49,4.92,0.74,7.54,0.71l0.89-0.03C326.33,405.55,326.42,405.54,326.51,405.54z"/></g><g><g><g><path class="st6" d="M115.67,173.05c0,0-46.29,20.25-66.15-21.21s32.21-65.57,57.28-48.21c0,0-20.25-43.31,18.32-67.46      s98.9,28.89,51.86,86.74 M123.03,337.61c0,0-45.15-21.85-68.3,8.04s-9.64,81.2,45.32,73.39c0,0-19.29,59.82,32.79,62.65      c52.07,2.82,57.86-40.9,51.11-76.41s2.28-67.67,2.28-67.67 M335.02,122.91c-47.04-57.86,13.29-110.89,51.86-86.74      s18.32,67.46,18.32,67.46c25.07-17.36,77.14,6.75,57.28,48.21s-66.15,21.21-66.15,21.21 M325.78,337.61      c0,0,9.03,32.15,2.28,67.67s-0.96,79.23,51.11,76.41c52.07-2.82,32.79-62.65,32.79-62.65c54.96,7.81,68.46-43.49,45.32-73.39      s-68.3-8.04-68.3-8.04"/></g><g><path class="st89" d="M370.52,30.45c5.64,0.64,11.19,2.48,16.36,5.71c33.5,20.97,22.63,56.39,19.19,65.34      c-3.28,3.03-6.48,6.35-9.14,9.83c-10.46,13.65,7.84,49.18,43.39,32.42c17.31-8.16,21.36-18.94,20.95-27.85      c6.32,9.21,8.11,21.52,1.21,35.93c-19.86,41.46-66.15,21.21-66.15,21.21l-61.32-50.14c-0.5-0.62-0.98-1.24-1.46-1.86      c22.13,3.81,47.49-4,58.81-36.85C402.15,55.79,380.77,37.37,370.52,30.45z M124.43,337.61c5.99,11.53,12.79,33.61-11.02,49.4      c-22.42,14.88-53.93,12.09-69.26-5.17c2.18,22.6,20.38,42.25,55.91,37.2c0,0,31.82-25.17,53.04-4.92      c16.46,15.71,10.68,50.58-13.85,67.67c46.14-1,51.17-42.51,44.71-76.52c-6.75-35.52,2.28-67.67,2.28-67.67H124.43z       M169.48,107.6c-23.81,21.08-50.03,12.72-63.8-6.75c0.65,1.77,1.12,2.76,1.12,2.76c-4.04-2.8-8.79-4.51-13.82-5.26      c11.83,11.28,33.39,41.14,9.97,69.43c-3.89,4.7-8.15,8.02-12.61,10.2c13.92,0.05,25.34-4.94,25.34-4.94l61.32-50.14      c23.96-29.47,20.06-57.68,5.36-75.09C187.8,64.22,190.64,88.88,169.48,107.6z M462.28,353.52      c-2.93,14.88-11.69,30.94-34.63,37.46c-47.51,13.5-71.1-37.28-71.1-37.28v-16.09h-30.78c0,0,8.27,29.48,3.05,63.16l18.44-4.11      c0,0,45.91,4.12,46.74,42.96c0.47,22.02-16.53,34.62-34.18,40.65c5.59,1.3,12.01,1.82,19.34,1.42      c52.07-2.82,32.79-62.65,32.79-62.65C462.34,426.21,477.87,383.68,462.28,353.52z"/></g></g><g><g><path class="st6" d="M282.85,108.44c0,0,1.16,0.12,3.25,0.43c17.58,2.6,101.21,18.59,121.03,89.25      c22.18,79.07,3,150.03-62.14,162.76c0,0,20.68,48.93-11.14,53.98c-31.82,5.05-43.39-18.1-43.39-18.1s-3.86,24.31-29.89,22.28      h-9.11c-26.04,2.03-29.89-22.28-29.89-22.28s-11.57,23.14-43.39,18.1c-31.82-5.05-11.14-53.98-11.14-53.98      c-65.14-12.74-84.32-83.69-62.14-162.76s124.28-89.68,124.28-89.68S271.3,106.56,282.85,108.44z"/></g><g><path class="st89" d="M407.13,198.12c-16.45-58.63-76.83-79.62-106.96-86.55c22.51,11.93,83.56,51.93,84.35,135.48      c0.96,102.46-66.69,102.46-66.69,102.46s25.68,34.41,4.01,46.29s-40.92-17.77-40.92-17.77s-7.13,22.41-33.25,20.57      s-27.08-22.87-27.08-22.87s-20.25,33.56-43.39,19.1c-5.84-3.65-11.44-6.53-16.55-8.79c-1.18,12.85,1.62,26.3,17.51,28.82      c31.82,5.04,43.39-18.1,43.39-18.1s3.86,24.31,29.89,22.28h9.11c26.04,2.03,29.89-22.28,29.89-22.28s11.57,23.14,43.39,18.1      c31.82-5.05,11.14-53.98,11.14-53.98C410.13,348.15,429.31,277.19,407.13,198.12z"/></g></g><g><path class="st90" d="M169.16,232.51c0,0,16.07-24.53,41.14-26.09c25.07-1.56,38.57,22.94,37.29,61.48     c-1.29,38.54-31.44,66.16-61.36,69.71s-40.85-27.31-39.57-48.53C147.95,267.87,158.98,244.09,169.16,232.51z M240.24,341.8     c14.51-1.29,16.35-17.36,7.43-23.14s-14.87,8.36-14.87,8.36S225.73,343.09,240.24,341.8z M342.84,232.51     c0,0-16.07-24.53-41.14-26.09c-25.07-1.56-38.57,22.94-37.29,61.48c1.29,38.54,31.44,66.16,61.36,69.71     c29.92,3.54,40.85-27.31,39.57-48.53C364.06,267.87,353.03,244.09,342.84,232.51z M279.2,327.01c0,0-5.95-14.14-14.87-8.36     c-8.92,5.79-7.07,21.86,7.43,23.14S279.2,327.01,279.2,327.01z"/></g><g><path d="M240.24,341.8c-7.51,0.67-9.23-3.32-9.15-7.32c3.77,2.09,8.34,2.18,12.2,0.13c4.08-2.17,6.21-6.65,7.65-10.8     c0.16-0.48,0.26-0.97,0.32-1.46C255.6,329.44,252.3,340.73,240.24,341.8z M365.34,289.09c-1.29-21.21-12.32-45-22.5-56.57     c0,0-3.99-6.09-11.09-12.39c1.82,3.63,3.51,7.33,5.09,11.14c10.59,25.59,12.41,58.97-13.56,75.87c-11,7.15-24.73,9.34-37.51,7.09     c-1.26-0.22-2.49-0.53-3.69-0.88c11.68,13.62,27.72,22.38,43.7,24.28C355.7,341.16,366.63,310.3,365.34,289.09z M229.22,211.45     c0.45,10.95,0.3,21.84-1.17,32.79c-1.8,13.42-5.87,26.95-13.73,38.13c-6.93,9.85-15.47,17.36-25.7,23.66     c-9.68,5.96-20.72,10.87-32.22,11.45c-1.54,0.08-3.05,0.04-4.51-0.09c5.87,12.62,16.86,22.29,34.33,20.22     c29.92-3.54,60.08-31.17,61.36-69.71C248.5,240.63,241.99,220.39,229.22,211.45z M279.2,327.01c0,0-2.69-6.37-7.15-8.81     c2.33,4.86,2.35,11.3-1.41,15.34c-2.57,2.76-6.7,3.46-10.03,1.75c1.96,3.39,5.64,6.02,11.16,6.51     C286.27,343.09,279.2,327.01,279.2,327.01z"/></g><g><path class="st6" d="M215.09,229.11c0,4.96-4.02,8.99-8.99,8.99s-8.99-4.02-8.99-8.99c0-4.96,4.02-8.99,8.99-8.99     S215.09,224.15,215.09,229.11z M305.9,220.12c-4.96,0-8.99,4.02-8.99,8.99c0,4.96,4.02,8.99,8.99,8.99s8.99-4.02,8.99-8.99     C314.89,224.15,310.86,220.12,305.9,220.12z"/></g></g></g></svg>